<?xml version="1.0" encoding="utf-8"?>
<!-- Generator: Adobe Illustrator 23.0.6, SVG Export Plug-In . SVG Version: 6.00 Build 0)  -->
<svg version="1.1" id="Calque_1" xmlns="http://www.w3.org/2000/svg" xmlns:xlink="http://www.w3.org/1999/xlink" x="0px" y="0px"
	 viewBox="0 0 586.39 218" style="enable-background:new 0 0 586.39 218;" xml:space="preserve">
<g>
	<path d="M156.8,96.64c13.8,12.21,20.7,28.25,20.7,48.1c0,13.1-3.43,25.17-10.27,36.18c-6.85,11.02-17.42,19.95-31.72,26.8
		C121.21,214.58,103.44,218,82.2,218c-14.7,0-29.33-1.59-43.93-4.76c-14.59-3.17-27.35-7.84-38.27-14l23.83-51.82
		c8.73,4.96,17.92,8.74,27.55,11.32c9.63,2.58,19.01,3.87,28.14,3.87c8.14,0,14.74-1.44,19.8-4.32c5.06-2.88,7.59-6.9,7.59-12.06
		c0-4.96-2.28-8.68-6.85-11.17c-4.57-2.48-12.81-3.72-24.72-3.72H14.89L25.31,4.76H163.8v53.01H83.09L81.6,78.33h10.72
		C121.51,78.33,143,84.43,156.8,96.64z"/>
	<path d="M236.91,205.05c-14.2-8.64-25.31-21.14-33.36-37.52s-12.06-35.89-12.06-58.52c0-22.63,4.02-42.14,12.06-58.52
		c8.04-16.38,19.16-28.89,33.36-37.53C251.1,4.32,267.44,0,285.9,0s34.79,4.32,48.99,12.95c14.19,8.64,25.31,21.15,33.36,37.53
		c8.04,16.38,12.06,35.89,12.06,58.52c0,22.63-4.02,42.14-12.06,58.52s-19.16,28.89-33.36,37.52c-14.2,8.64-30.53,12.96-48.99,12.96
		S251.1,213.68,236.91,205.05z M309.73,109c0-35.14-7.94-52.71-23.82-52.71c-15.89,0-23.83,17.57-23.83,52.71
		c0,35.14,7.94,52.71,23.83,52.71C301.78,161.71,309.73,144.14,309.73,109z"/>
	<path d="M443,205.05c-14.2-8.64-25.31-21.14-33.36-37.52s-12.06-35.89-12.06-58.52c0-22.63,4.02-42.14,12.06-58.52
		C417.68,34.1,428.8,21.59,443,12.95C457.19,4.32,473.52,0,491.99,0s34.79,4.32,48.99,12.95c14.19,8.64,25.31,21.15,33.36,37.53
		c8.04,16.38,12.06,35.89,12.06,58.52c0,22.63-4.02,42.14-12.06,58.52c-8.04,16.38-19.16,28.89-33.36,37.52
		c-14.2,8.64-30.53,12.96-48.99,12.96S457.19,213.68,443,205.05z M515.81,109c0-35.14-7.94-52.71-23.83-52.71
		c-15.89,0-23.83,17.57-23.83,52.71c0,35.14,7.94,52.71,23.83,52.71C507.87,161.71,515.81,144.14,515.81,109z"/>
</g>
</svg>
