<svg id="Calque_1" data-name="Calque 1" xmlns="http://www.w3.org/2000/svg" viewBox="0 0 565.95 208.49">
  <title>600</title>
  <g>
    <path d="M142.13,82.88a63.71,63.71,0,0,1,25.06,22.51q9.41,14.52,9.4,33.32,0,20.79-10.68,36.74A69.13,69.13,0,0,1,136.72,200q-18.52,8.55-41,8.54-28.77,0-50.27-11.1a78.6,78.6,0,0,1-33.47-33Q0,142.42,0,110.51,0,76.34,13.81,51.27A92.67,92.67,0,0,1,52.55,13.1Q77.47,0,110.51,0a138.26,138.26,0,0,1,34.18,4.13q16.25,4.12,27.63,11.54l-24.21,47q-14.82-10.53-36.17-10.54-17.39,0-28.63,8.69T68.64,86Q84.3,74.91,108.23,74.91A73.77,73.77,0,0,1,142.13,82.88ZM106,156.66q5.69-5.41,5.69-14.82t-5.69-15q-5.7-5.55-14.81-5.55t-14.82,5.55q-5.7,5.55-5.69,15t5.69,14.82q5.7,5.4,14.82,5.41T106,156.66Z"/>
    <path d="M231.71,196.1q-20.37-12.39-31.9-35.88t-11.54-56q0-32.48,11.54-56t31.9-35.89Q252.07,0,278.56,0t46.85,12.39q20.37,12.39,31.9,35.89t11.54,56q0,32.46-11.54,56t-31.9,35.88q-20.36,12.39-46.85,12.39T231.71,196.1Zm69.64-91.85q0-50.41-22.79-50.42t-22.79,50.42q0,50.42,22.79,50.41T301.35,104.25Z"/>
    <path d="M428.8,196.1q-20.35-12.39-31.9-35.88t-11.53-56q0-32.48,11.53-56t31.9-35.89Q449.17,0,475.66,0t46.85,12.39q20.37,12.39,31.9,35.89t11.54,56q0,32.46-11.54,56t-31.9,35.88q-20.37,12.39-46.85,12.39T428.8,196.1Zm69.64-91.85q0-50.41-22.78-50.42t-22.79,50.42q0,50.42,22.79,50.41T498.44,104.25Z"/>
  </g>
</svg>
